SILVERTORRENT Clean Verified Torrents Download 
http://www.silvertorrent.org 
http://www.shotpix.com/images/08096634903738710469.png
--------------------------------------------------------------------------------------
 
http://img32.imageshack.us/img32/3791/sinistert.jpg


Sinister.2012.REAL.R5.DVDRip.XViD.AC3-5.1.HQ.Hive-CM8


Thx Hive - CM8 Doing It Right The First Time


SOURCES
Video.: Russian DVD-R
Audio.: Unique - JiiNX thx for another great line
......: and the Russian 5.1 Audiotrack


ViDEO ENCODE
DVD had good quality, just the usual all reddish but easy fixable.
fixed the colours, added some brightness and sharpness and denoise


AUDiO ENCODE
The dvd didnt have studio audio so used the best line around from JiiNX
I filtered and cleaned it for 2h an synced it back to my video, took me
20 cuts to get all lipsync and entered it back into the russian 5.1 track.
sounds very nice now and all scary effects are inside now too,
will give you the extra scary kick and will do me till bluray.
btw, removed the russian narrator voice from the endcredits...
hate when its still left inside.


Video.: 720x304 @bitrate 1700 2pass
Audio.: English AC3 5.1 @448
Sample: Yes, included


NOTES
finally after 4 days the real dvd-r showed up, so this
is the first version thats not from the avi of an avi.
got very nice
enjoy

 
http://www.imdb.com/title/tt1922777/


General
Complete name                  : Sinister.2012.REAL.R5.DVDRip.XViD.AC3-5.1.HQ.Hive-CM8.avi
Format                         : AVI
Format/Info                    : Audio Video Interleave
File size                      : 1.58 GiB
Duration                       : 1h 45mn
Overall bit rate               : 2 157 Kbps
Writing application            : Nandub v1.0rc2
Writing library                : Nandub build 1853/release

Video
ID                             : 0
Format                         : MPEG-4 Visual
Format profile                 : Advanced Simple@L5
Format settings, BVOP          : 2
Format settings, QPel          : Yes
Format settings, GMC           : No warppoints
Format settings, Matrix        : Default (H.263)
Muxing mode                    : Packed bitstream
Codec ID                       : XVID
Codec ID/Hint                  : XviD
Duration                       : 1h 45mn
Bit rate                       : 1 700 Kbps
Width                          : 720 pixels
Height                         : 304 pixels
Display aspect ratio           : 2.35:1
Frame rate                     : 25.000 fps
Color space                    : YUV
Chroma subsampling             : 4:2:0
Bit depth                      : 8 bits
Scan type                      : Progressive
Compression mode               : Lossy
Bits/(Pixel*Frame)             : 0.311
Stream size                    : 1.25 GiB (79%)
Writing library                : XviD 1.2.1 (UTC 2008-12-04)

Audio
ID                             : 1
Format                         : AC-3
Format/Info                    : Audio Coding 3
Mode extension                 : CM (complete main)
Format settings, Endianness    : Big
Codec ID                       : 2000
Duration                       : 1h 45mn
Bit rate mode                  : Constant
Bit rate                       : 448 Kbps
Channel(s)                     : 6 channels
Channel positions              : Front: L C R, Side: L R, LFE
Sampling rate                  : 48.0 KHz
Bit depth                      : 16 bits
Compression mode               : Lossy
Stream size                    : 337 MiB (21%)
Alignment                      : Split accross interleaves
Interleave, duration           : 40 ms (1.00 video frame)
Interleave, preload duration   : 500 ms


PLOT
A true-crime writer finds a cache of 8mm 'snuff' films that suggest the
murder he is currently researching is the work of a serial killer whose
career dates back to the 1960s.


CAST
Ethan Hawke      ...     Ellison Oswalt
Juliet Rylance   ...     Tracy
James Ransone    ...     Deputy
 
http://silvertorrent.org/index.php?page=torrent-details&id=a205c0e8236516a4f0ac41f194f0c6a9bee9b69f

 
http://img255.imageshack.us/img255/7325/ssii.png 
http://img405.imageshack.us/img405/7380/sssiii.png 
http://img109.imageshack.us/img109/3695/sssisiii.png 
http://img39.imageshack.us/img39/2317/sssisiiisi.png 
http://img21.imageshack.us/img21/2858/59654680.pnh





GREETZ
ViSiON,SPK,SceneLovers,PRESTiGE,SANTi,3LT0N,YanKeeS,COPYxRIGHT,THC,T0XiC
D2U,LKRG,ADTRG,Feel-Free,KoDeKinG,FLAWL3SS,WBZ,BHRG,26K,NOVA,MAGNET
Unevano,BigVik,Rapeseed,SAFC,goldadvance,KaN1vE,Pinnz,Wayne,TED
SeeN,jtr,Limey,ICONiK,4PlayHD,THEDEN-RG,eXceSs,AKS74u,HiGH
Mr Hive,and most P2P groups
Great Work Guys!

LOOKING FOR ANYTHING YOU WANT TO LOOK AND SOUND BETTER

CM8@hushmail.com
